<svg xmlns="http://www.w3.org/2000/svg" width="500px" height="500px" viewBox="0 0 27 27">
<circle cx="13.5" cy="13.5" r="13.5" fill="#0060A9" />
<path fill="#FFFFFF" d="M 18.7 22.3 h 1.7 l -3.1 -4.6 c 0.6 -0.1 1.1 -0.4 1.5 -0.8 c 0.4 -0.5 0.6 -1 0.6 -1.6 v -9 c 0 -0.7 -0.2 -1.2 -0.7 -1.7 c -0.5 -0.5 -1.1 -0.7 -1.7 -0.7 h -6.8 c -0.7 0 -1.3 0.2 -1.8 0.7 c -0.5 0.5 -0.7 1 -0.7 1.7 v 9 c 0 0.6 0.2 1.2 0.6 1.6 c 0.4 0.5 0.9 0.7 1.5 0.8 l -3.1 4.6 h 1.7 l 2.1 -3.1 h 6.1 l 2.1 3.1 Z m -9.3 -6.1 c -0.2 -0.2 -0.3 -0.5 -0.3 -0.8 c 0 -0.3 0.1 -0.6 0.3 -0.8 c 0.2 -0.2 0.5 -0.3 0.8 -0.3 c 0.3 0 0.6 0.1 0.8 0.3 c 0.2 0.2 0.3 0.5 0.3 0.8 c 0 0.3 -0.1 0.6 -0.3 0.8 c -0.2 0.2 -0.5 0.3 -0.8 0.3 c -0.3 0 -0.6 -0.1 -0.8 -0.3 m -0.2 -9.7 c 0 -0.3 0.1 -0.6 0.3 -0.8 c 0.2 -0.2 0.5 -0.3 0.8 -0.3 h 6.5 c 0.3 0 0.6 0.1 0.8 0.3 s 0.3 0.5 0.3 0.8 v 2.9 c 0 0.3 -0.1 0.6 -0.3 0.8 s -0.5 0.3 -0.8 0.3 h -6.5 c -0.3 0 -0.6 -0.1 -0.8 -0.3 c -0.2 -0.2 -0.3 -0.5 -0.3 -0.8 v -2.9 Z m 8.5 9.7 c -0.2 0.2 -0.5 0.3 -0.8 0.3 c -0.3 0 -0.6 -0.1 -0.8 -0.3 c -0.2 -0.2 -0.3 -0.5 -0.3 -0.8 c 0 -0.3 0.1 -0.6 0.3 -0.8 c 0.2 -0.2 0.5 -0.3 0.8 -0.3 c 0.3 0 0.6 0.1 0.8 0.3 c 0.2 0.2 0.3 0.5 0.3 0.8 c 0 0.3 -0.1 0.6 -0.3 0.8 z"/>
<!--path fill="#0060A9" d="M 13.5 0 c 7.5 0 13.5 6 13.5 13.5 c 0 7.5 -6 13.5 -13.5 13.5 c -7.5 0 -13.5 -6 -13.5 -13.5 c 0 -7.5 6 -13.5 13.5 -13.5"/-->
<!--path fill="#005DAA" d="M 13.51 0 c 7.463 0 13.512 6.049 13.512 13.512 c 0 7.459 -6.049 13.506 -13.512 13.506 c -7.461 0 -13.51 -6.047 -13.51 -13.506 c 0 -7.463 6.049 -13.512 13.51 -13.512"/-->
<!--path fill="#FFFFFF" d="M 18.662 22.275 h 1.746 l -3.102 -4.6 c 0.596 -0.096 1.088 -0.369 1.479 -0.818 c 0.395 -0.451 0.592 -0.986 0.592 -1.605 v -8.984 c 0 -0.666 -0.238 -1.234 -0.715 -1.713 c -0.477 -0.475 -1.059 -0.709 -1.746 -0.709 h -6.811 c -0.692 0 -1.274 0.234 -1.75 0.709 c -0.472 0.478 -0.71 1.047 -0.71 1.713 v 8.984 c 0 0.619 0.201 1.158 0.607 1.621 c 0.403 0.467 0.891 0.729 1.461 0.803 l -3.099 4.6 h 1.742 l 2.107 -3.139 h 6.096 l 2.103 3.138 Z m -9.283 -6.087 c -0.219 -0.217 -0.326 -0.49 -0.326 -0.828 c 0 -0.313 0.107 -0.582 0.326 -0.814 c 0.219 -0.23 0.496 -0.346 0.834 -0.346 c 0.311 0 0.576 0.115 0.795 0.346 c 0.219 0.232 0.328 0.502 0.328 0.814 c 0 0.338 -0.109 0.611 -0.328 0.828 c -0.217 0.219 -0.484 0.328 -0.795 0.328 c -0.338 0 -0.615 -0.11 -0.834 -0.328 m -0.238 -9.694 c 0 -0.332 0.109 -0.607 0.322 -0.82 c 0.213 -0.213 0.485 -0.322 0.821 -0.322 h 6.453 c 0.334 0 0.611 0.109 0.838 0.322 s 0.34 0.488 0.34 0.82 v 2.875 c 0 0.334 -0.113 0.605 -0.34 0.82 s -0.506 0.318 -0.838 0.318 h -6.453 c -0.336 0 -0.608 -0.104 -0.821 -0.318 c -0.213 -0.214 -0.322 -0.486 -0.322 -0.82 v -2.875 Z m 8.498 9.695 c -0.215 0.217 -0.494 0.328 -0.832 0.328 c -0.314 0 -0.58 -0.109 -0.795 -0.328 c -0.217 -0.219 -0.326 -0.492 -0.326 -0.832 c 0 -0.313 0.107 -0.582 0.326 -0.813 c 0.215 -0.229 0.48 -0.347 0.795 -0.347 c 0.338 0 0.617 0.117 0.832 0.347 c 0.219 0.231 0.328 0.503 0.328 0.813 c 0 0.34 -0.11 0.614 -0.328 0.832"/-->
</svg>