<svg xmlns="http://www.w3.org/2000/svg" width="400" height="400" viewBox="0 0 21 21">
    <g style="fill:#ea1c2d">
        <path d="M 8 7.5 h -3.5 c -0.1 0 -0.2 -0.1 -0.2 -0.2 c 0.6 -2.8 3 -4.9 6 -4.9 c 1.9 0 3.7 0.9 4.8 2.3 c 0.1 0.1 0 0.3 -0.1 0.3 h -4.3 c -0.4 0 -0.8 0.2 -1.1 0.6 l -1.1 1.6 c -0.1 0.2 -0.3 0.3 -0.5 0.3 m 1.5 1.7 l 1.5 -2 c 0.1 -0.1 0.2 -0.3 0.4 -0.3 h 4.9 v 0 h 2.1 c 0.1 0 0.2 -0.1 0.2 -0.2 c -0.7 -3.3 -3.4 -5.9 -6.8 -6.5 c -0.5 -0.1 -0.9 -0.1 -1.4 -0.1 v 0 v 0 h 0.1 h -0.3 h -0.3 h -0.1 c -3.9 0.4 -7 3.4 -7.5 7.2 c 0 0.1 -0.1 0.1 -0.2 0.1 l -0.317 0 c -0.1 0 -0.124 0 -0.18 0.1 l -1.3 1.7 c -0.1 0.1 0 0.3 0.1 0.3 h 8.58 c 0.2 0 0.4 -0.1 0.5 -0.3" />
        <path d="M 10.5 15 c -1.9 0 -3.7 -0.9 -4.8 -2.3 c -0.1 -0.1 0 -0.3 0.1 -0.3 h 4.3 c 0.4 0 0.8 -0.2 1.1 -0.6 l 1.1 -1.6 c 0.1 -0.2 0.3 -0.3 0.5 -0.3 h 3.5 c 0.1 0 0.2 0.1 0.2 0.2 c -0.6 2.8 -3 4.9 -6 4.9 m 10.3 -6.9 c 0.1 -0.1 0 -0.3 -0.1 -0.3 h -8.8 c -0.2 0 -0.4 0.1 -0.5 0.3 l -1.5 2 c -0.1 0.1 -0.2 0.3 -0.4 0.3 h -4.9 v 0 h -2.1 c -0.1 0 -0.2 0.1 -0.2 0.2 c 0.7 3.2 3.2 5.8 6.4 6.5 c 0.6 0.1 1.2 0.2 1.8 0.2 v 0 h 0.1 h 0.3 h 0.4 v 0 c 3.9 -0.3 7 -3.4 7.5 -7.2 c 0 -0.1 0.1 -0.1 0.2 -0.1 l 0.2 0 c 0.1 0 0.18 0 0.23 -0.11 l 1.3 -1.7 Z" />
    </g>
</svg>