<?xml version="1.0" encoding="UTF-8" standalone="no"?>
<svg
   xmlns:dc="http://purl.org/dc/elements/1.1/"
   xmlns:cc="http://creativecommons.org/ns#"
   xmlns:rdf="http://www.w3.org/1999/02/22-rdf-syntax-ns#"
   xmlns:svg="http://www.w3.org/2000/svg"
   xmlns="http://www.w3.org/2000/svg"
   xmlns:sodipodi="http://sodipodi.sourceforge.net/DTD/sodipodi-0.dtd"
   xmlns:inkscape="http://www.inkscape.org/namespaces/inkscape"
   width="200"
   height="200"
   viewBox="0 0 150.00001 150.00001"
   version="1.1"
   id="svg2040"
   sodipodi:docname="favicon.svg"
   inkscape:version="1.0.1 (3bc2e813f5, 2020-09-07)">
  <metadata
     id="metadata2046">
    <rdf:RDF>
      <cc:Work
         rdf:about="">
        <dc:format>image/svg+xml</dc:format>
        <dc:type
           rdf:resource="http://purl.org/dc/dcmitype/StillImage" />
        <dc:title></dc:title>
      </cc:Work>
    </rdf:RDF>
  </metadata>
  <defs
     id="defs2044" />
  <sodipodi:namedview
     pagecolor="#ffffff"
     bordercolor="#666666"
     borderopacity="1"
     objecttolerance="10"
     gridtolerance="10"
     guidetolerance="10"
     inkscape:pageopacity="0"
     inkscape:pageshadow="2"
     inkscape:window-width="1368"
     inkscape:window-height="850"
     id="namedview2042"
     showgrid="false"
     inkscape:zoom="1.612405"
     inkscape:cx="135.11142"
     inkscape:cy="61.659288"
     inkscape:window-x="-6"
     inkscape:window-y="-6"
     inkscape:window-maximized="1"
     inkscape:current-layer="svg2040"
     units="px" />
  <symbol
     id="a">
    <path
       d="M 0.15,0.244 0.225,0.322 0.464,0 H 0.643 L 0.321,0.415 0.612,0.729 H 0.435 L 0.15,0.409 v 0.32 H 0 V 0 h 0.15 z"
       id="path1029" />
  </symbol>
  <symbol
     id="b">
    <path
       d="M 0.638,0.505 A 0.248,0.248 0 0 1 0.589,0.649 0.308,0.308 0 0 1 0.334,0.764 C 0.128,0.764 0,0.617 0,0.381 0,0.146 0.127,0 0.33,0 0.512,0 0.632,0.105 0.641,0.272 H 0.495 C 0.485,0.179 0.427,0.126 0.334,0.126 0.218,0.126 0.15,0.22 0.15,0.379 c 0,0.161 0.071,0.257 0.189,0.257 0.087,0 0.136,-0.042 0.156,-0.131 z"
       id="path1032" />
  </symbol>
  <symbol
     id="c">
    <path
       d="m 0.15,0.289 h 0.172 c 0.065,0 0.093,-0.026 0.093,-0.086 V 0.173 L 0.414,0.125 C 0.414,0.056 0.418,0.035 0.436,0 H 0.597 V 0.027 C 0.574,0.04 0.565,0.055 0.565,0.087 0.561,0.302 0.557,0.312 0.464,0.352 A 0.177,0.177 0 0 1 0.587,0.532 0.21,0.21 0 0 1 0.532,0.679 C 0.499,0.713 0.453,0.729 0.391,0.729 H 0 V 0 h 0.15 v 0.289 m 0,0.125 v 0.19 H 0.331 C 0.374,0.604 0.391,0.6 0.41,0.585 0.428,0.57 0.437,0.545 0.437,0.511 0.437,0.476 0.428,0.448 0.41,0.433 0.393,0.419 0.374,0.414 0.331,0.414 Z"
       id="path1035" />
  </symbol>
  <symbol
     id="d">
    <path
       d="M 0,0 Z"
       id="path1038" />
  </symbol>
  <symbol
     id="e">
    <path
       d="M 0.575,0.53 C 0.574,0.681 0.473,0.764 0.289,0.764 0.114,0.764 0.013,0.682 0.013,0.54 0.013,0.427 0.07,0.372 0.218,0.344 L 0.32,0.324 C 0.42,0.305 0.457,0.277 0.457,0.218 0.457,0.157 0.401,0.12 0.31,0.12 0.208,0.12 0.151,0.163 0.146,0.241 H 0 C 0.009,0.085 0.116,0 0.302,0 0.49,0 0.601,0.087 0.601,0.236 0.601,0.351 0.543,0.411 0.408,0.437 L 0.294,0.459 C 0.187,0.48 0.156,0.501 0.156,0.554 c 0,0.055 0.048,0.09 0.126,0.09 0.095,0 0.148,-0.04 0.153,-0.114 z"
       id="path1041" />
  </symbol>
  <symbol
     id="f">
    <path
       d="m 0.15,0.26 h 0.187 c 0.134,0 0.22,0.095 0.22,0.243 0,0.146 -0.083,0.226 -0.235,0.226 H 0 V 0 h 0.15 v 0.26 m 0,0.125 v 0.219 h 0.14 c 0.08,0 0.117,-0.035 0.117,-0.109 0,-0.075 -0.037,-0.11 -0.117,-0.11 z"
       id="path1044" />
  </symbol>
  <symbol
     id="g">
    <path
       d="M 0.17,0.489 V 0 H 0.31 V 0.709 H 0.217 C 0.195,0.625 0.122,0.582 0,0.582 V 0.489 Z"
       id="path1047" />
  </symbol>
  <symbol
     id="h">
    <path
       d="M 0.01,0.189 C 0.013,0.08 0.105,0 0.227,0 A 0.22,0.22 0 0 1 0.429,0.11 C 0.466,0.173 0.488,0.28 0.488,0.394 A 0.464,0.464 0 0 1 0.439,0.632 0.224,0.224 0 0 1 0.239,0.748 C 0.097,0.748 0,0.646 0,0.498 0,0.352 0.086,0.252 0.212,0.252 c 0.036,0 0.07,0.01 0.092,0.026 A 0.248,0.248 0 0 1 0.348,0.322 C 0.348,0.185 0.31,0.12 0.231,0.12 0.181,0.12 0.148,0.147 0.145,0.189 H 0.01 m 0.225,0.445 c 0.068,0 0.11,-0.052 0.11,-0.136 0,-0.078 -0.043,-0.13 -0.108,-0.13 -0.064,0 -0.104,0.05 -0.104,0.132 0,0.082 0.039,0.134 0.102,0.134 z"
       id="path1050" />
  </symbol>
  <symbol
     id="i">
    <path
       d="M 0.244,0.747 A 0.22,0.22 0 0 1 0.06,0.656 C 0.019,0.601 0,0.511 0,0.373 0,0.247 0.016,0.159 0.05,0.105 A 0.22,0.22 0 0 1 0.244,0 0.22,0.22 0 0 1 0.428,0.09 c 0.04,0.055 0.06,0.146 0.06,0.279 0,0.13 -0.016,0.218 -0.05,0.273 A 0.22,0.22 0 0 1 0.244,0.747 m 0,-0.113 c 0.036,0 0.065,-0.02 0.082,-0.057 A 0.635,0.635 0 0 0 0.348,0.372 0.717,0.717 0 0 0 0.33,0.185 C 0.314,0.143 0.284,0.12 0.244,0.12 0.207,0.12 0.179,0.139 0.162,0.175 A 0.604,0.604 0 0 0 0.14,0.374 0.75,0.75 0 0 0 0.158,0.567 C 0.173,0.61 0.204,0.634 0.244,0.634 Z"
       id="path1053" />
  </symbol>
  <symbol
     id="j">
    <path
       d="M 0.15,0.314 H 0.499 V 0.439 H 0.15 V 0.604 H 0.527 V 0.729 H 0 V 0 H 0.545 V 0.125 H 0.15 Z"
       id="path1056" />
  </symbol>
  <symbol
     id="k">
    <path
       d="M 0.15,0.568 0.281,0 h 0.15 L 0.56,0.568 V 0 H 0.71 V 0.729 H 0.484 L 0.356,0.149 0.224,0.729 H 0 V 0 h 0.15 z"
       id="path1059" />
  </symbol>
  <symbol
     id="l">
    <path
       d="M 0.428,0.752 V 0.258 C 0.428,0.17 0.383,0.128 0.289,0.128 0.195,0.128 0.15,0.17 0.15,0.258 V 0.752 H 0 V 0.258 C 0,0.176 0.022,0.118 0.071,0.074 A 0.321,0.321 0 0 1 0.289,0 c 0.088,0 0.165,0.026 0.218,0.074 0.049,0.044 0.071,0.102 0.071,0.184 v 0.494 z"
       id="path1062" />
  </symbol>
  <symbol
     id="m">
    <path
       d="M 0.475,0.147 0.523,0 H 0.677 L 0.425,0.729 H 0.259 L 0,0 H 0.153 L 0.202,0.147 H 0.475 M 0.434,0.272 h -0.19 l 0.095,0.285 z"
       id="path1065" />
  </symbol>
  <symbol
     id="n">
    <path
       d="M 0.371,0.604 H 0.584 V 0.729 H 0 V 0.604 H 0.221 V 0 h 0.15 z"
       id="path1068" />
  </symbol>
  <symbol
     id="o">
    <path
       d="M 0.15,0.729 H 0 V 0 H 0.499 V 0.125 H 0.15 Z"
       id="path1071" />
  </symbol>
  <symbol
     id="p">
    <path
       d="M 0.35,0.764 A 0.324,0.324 0 0 1 0.102,0.663 0.414,0.414 0 0 1 0,0.382 C 0,0.273 0.037,0.17 0.102,0.101 A 0.321,0.321 0 0 1 0.351,0 C 0.455,0 0.537,0.033 0.6,0.101 A 0.416,0.416 0 0 1 0.702,0.377 0.416,0.416 0 0 1 0.6,0.663 0.319,0.319 0 0 1 0.35,0.764 M 0.351,0.636 c 0.123,0 0.201,-0.1 0.201,-0.258 0,-0.15 -0.081,-0.25 -0.201,-0.25 -0.122,0 -0.201,0.1 -0.201,0.254 0,0.154 0.079,0.254 0.201,0.254 z"
       id="path1074" />
  </symbol>
  <symbol
     id="q">
    <path
       d="M 0.669,0.415 H 0.377 V 0.29 H 0.543 A 0.15,0.15 0 0 0 0.507,0.198 0.194,0.194 0 0 0 0.358,0.128 c -0.122,0 -0.208,0.106 -0.208,0.256 0,0.157 0.076,0.252 0.204,0.252 A 0.19,0.19 0 0 0 0.483,0.592 0.143,0.143 0 0 0 0.528,0.519 H 0.669 C 0.651,0.67 0.529,0.764 0.353,0.764 0.143,0.764 0,0.609 0,0.382 0,0.161 0.144,0 0.341,0 0.439,0 0.505,0.035 0.561,0.117 L 0.579,0.021 h 0.09 z"
       id="path1077" />
  </symbol>
  <symbol
     id="r">
    <path
       d="M 0.15,0.729 H 0 V 0 h 0.15 z"
       id="path1080" />
  </symbol>
  <symbol
     id="s">
    <path
       d="m 0.443,0 h 0.15 V 0.729 H 0.443 V 0.233 L 0.154,0.729 H 0 V 0 h 0.15 v 0.504 z"
       id="path1083" />
  </symbol>
  <symbol
     id="t">
    <path
       d="m 0.093,0.314 h 0.24 c 0.083,0 0.12,-0.04 0.12,-0.13 L 0.452,0.119 C 0.452,0.074 0.46,0.03 0.473,0 H 0.586 V 0.023 C 0.551,0.047 0.544,0.073 0.542,0.17 0.541,0.29 0.522,0.326 0.443,0.36 0.525,0.401 0.558,0.45 0.558,0.534 0.558,0.66 0.48,0.729 0.336,0.729 H 0 V 0 h 0.093 v 0.314 m 0,0.082 V 0.647 H 0.318 C 0.37,0.647 0.4,0.639 0.423,0.619 0.448,0.598 0.461,0.565 0.461,0.522 0.461,0.435 0.417,0.396 0.318,0.396 Z"
       id="path1172" />
  </symbol>
  <symbol
     id="u">
    <path
       d="m 0.473,0.257 c 0,0.08 -0.006,0.128 -0.021,0.167 A 0.22,0.22 0 0 1 0.24,0.562 C 0.094,0.562 0,0.451 0,0.278 0,0.105 0.09,0 0.238,0 0.358,0 0.441,0.068 0.462,0.182 H 0.378 C 0.355,0.113 0.308,0.077 0.241,0.077 A 0.145,0.145 0 0 0 0.115,0.145 C 0.095,0.175 0.088,0.205 0.087,0.257 H 0.473 M 0.089,0.325 c 0.007,0.097 0.066,0.16 0.15,0.16 0.085,0 0.144,-0.066 0.144,-0.16 H 0.089 Z"
       id="path1175" />
  </symbol>
  <symbol
     id="v">
    <path
       d="M 0.275,0 0.476,0.524 H 0.382 L 0.234,0.099 0.094,0.524 H 0 L 0.184,0 Z"
       id="path1178" />
  </symbol>
  <symbol
     id="w">
    <path
       d="M 0.084,0.524 H 0.001 V 0 h 0.083 v 0.524 m 0,0.205 H 0 V 0.624 h 0.084 z"
       id="path1181" />
  </symbol>
  <symbol
     id="x">
    <path
       d="M 0.404,0.401 C 0.403,0.504 0.335,0.562 0.214,0.562 0.092,0.562 0.013,0.499 0.013,0.402 0.013,0.32 0.055,0.281 0.179,0.251 L 0.257,0.232 C 0.315,0.218 0.338,0.197 0.338,0.16 0.338,0.11 0.289,0.077 0.216,0.077 0.171,0.077 0.133,0.09 0.112,0.112 0.099,0.127 0.093,0.142 0.088,0.179 H 0 C 0.004,0.058 0.072,0 0.209,0 0.341,0 0.425,0.065 0.425,0.166 0.425,0.244 0.381,0.287 0.277,0.312 L 0.197,0.331 C 0.129,0.347 0.1,0.369 0.1,0.406 c 0,0.049 0.043,0.079 0.111,0.079 0.067,0 0.103,-0.029 0.105,-0.084 z"
       id="path1184" />
  </symbol>
  <symbol
     id="y">
    <path
       d="M 0.236,0.562 C 0.088,0.562 0,0.457 0,0.281 0,0.104 0.088,0 0.237,0 0.385,0 0.474,0.105 0.474,0.277 0.474,0.459 0.388,0.562 0.236,0.562 M 0.237,0.485 c 0.094,0 0.15,-0.077 0.15,-0.207 0,-0.124 -0.058,-0.201 -0.15,-0.201 -0.093,0 -0.15,0.077 -0.15,0.204 0,0.127 0.057,0.204 0.15,0.204 z"
       id="path1187" />
  </symbol>
  <symbol
     id="z">
    <path
       d="M 0,0.524 V 0 h 0.084 v 0.289 c 0,0.107 0.056,0.177 0.142,0.177 0.066,0 0.108,-0.04 0.108,-0.103 V 0 h 0.083 v 0.396 c 0,0.087 -0.065,0.143 -0.166,0.143 -0.078,0 -0.128,-0.03 -0.174,-0.103 v 0.088 z"
       id="path1190" />
  </symbol>
  <symbol
     id="A">
    <path
       d="M 0,0 Z"
       id="path1193" />
  </symbol>
  <symbol
     id="B">
    <path
       d="m 0,0 h 0.329 c 0.069,0 0.12,0.019 0.159,0.061 0.036,0.038 0.056,0.09 0.056,0.147 0,0.088 -0.04,0.141 -0.133,0.177 a 0.163,0.163 0 0 1 0.101,0.159 c 0,0.054 -0.02,0.1 -0.058,0.134 C 0.415,0.713 0.366,0.729 0.296,0.729 H 0 V 0 m 0.093,0.415 v 0.232 h 0.18 c 0.052,0 0.081,-0.007 0.106,-0.026 0.026,-0.02 0.04,-0.05 0.04,-0.09 0,-0.04 -0.014,-0.07 -0.04,-0.09 C 0.354,0.422 0.325,0.415 0.273,0.415 h -0.18 m 0,-0.333 V 0.333 H 0.32 c 0.082,0 0.131,-0.047 0.131,-0.126 0,-0.078 -0.049,-0.125 -0.131,-0.125 z"
       id="path1196" />
  </symbol>
  <symbol
     id="C">
    <path
       d="M 0,0.253 V 0.149 H 0.06 V 0.131 C 0.06,0.062 0.047,0.042 0,0.04 V 0.002 C 0.066,0 0.105,0.048 0.105,0.133 v 0.12 z"
       id="path1199" />
  </symbol>
  <symbol
     id="D">
    <path
       d="m 0.189,0.356 h 0.048 c 0.096,0 0.147,-0.045 0.147,-0.132 0,-0.091 -0.055,-0.146 -0.146,-0.146 -0.097,0 -0.144,0.049 -0.15,0.155 H 0 A 0.307,0.307 0 0 1 0.031,0.105 C 0.068,0.035 0.137,0 0.234,0 c 0.146,0 0.24,0.088 0.24,0.225 0,0.092 -0.035,0.142 -0.12,0.172 0.066,0.027 0.099,0.077 0.099,0.15 0,0.124 -0.081,0.199 -0.216,0.199 -0.143,0 -0.219,-0.08 -0.222,-0.233 h 0.088 a 0.206,0.206 0 0 0 0.016,0.091 c 0.02,0.041 0.064,0.065 0.119,0.065 0.078,0 0.125,-0.047 0.125,-0.125 0,-0.051 -0.018,-0.082 -0.057,-0.099 A 0.326,0.326 0 0 0 0.189,0.43 Z"
       id="path1202" />
  </symbol>
  <symbol
     id="E">
    <path
       d="M 0.232,0.746 A 0.203,0.203 0 0 1 0.069,0.667 C 0.023,0.603 0,0.507 0,0.373 0,0.129 0.08,0 0.232,0 c 0.15,0 0.232,0.129 0.232,0.367 0,0.14 -0.022,0.234 -0.069,0.3 A 0.2,0.2 0 0 1 0.232,0.746 m 0,-0.078 c 0.095,0 0.142,-0.097 0.142,-0.293 0,-0.206 -0.046,-0.302 -0.144,-0.302 -0.093,0 -0.14,0.1 -0.14,0.299 0,0.199 0.047,0.296 0.142,0.296 z"
       id="path1205" />
  </symbol>
  <symbol
     id="F">
    <path
       d="M 0.237,0.749 0,0 h 0.055 l 0.237,0.749 z"
       id="path1208" />
  </symbol>
  <symbol
     id="G">
    <path
       d="M 0.015,0.188 C 0.032,0.07 0.108,0 0.216,0 0.295,0 0.365,0.038 0.407,0.103 a 0.529,0.529 0 0 1 0.064,0.29 0.453,0.453 0 0 1 -0.06,0.263 0.204,0.204 0 0 1 -0.179,0.09 C 0.097,0.746 0,0.645 0,0.505 0,0.372 0.09,0.278 0.218,0.278 0.285,0.278 0.335,0.302 0.38,0.357 0.379,0.177 0.323,0.078 0.222,0.078 0.16,0.078 0.117,0.118 0.103,0.188 H 0.015 m 0.216,0.481 c 0.082,0 0.144,-0.069 0.144,-0.162 0,-0.089 -0.06,-0.151 -0.147,-0.151 -0.085,0 -0.138,0.06 -0.138,0.156 0,0.091 0.059,0.157 0.141,0.157 z"
       id="path1211" />
  </symbol>
  <symbol
     id="H">
    <path
       d="M 0.472,0.086 H 0.099 c 0.009,0.06 0.041,0.098 0.128,0.151 l 0.1,0.056 c 0.099,0.055 0.15,0.129 0.15,0.218 A 0.21,0.21 0 0 1 0.411,0.666 0.227,0.227 0 0 1 0.25,0.722 C 0.16,0.722 0.093,0.69 0.054,0.628 A 0.282,0.282 0 0 1 0.016,0.472 h 0.088 a 0.257,0.257 0 0 0 0.021,0.102 0.135,0.135 0 0 0 0.122,0.071 c 0.08,0 0.14,-0.058 0.14,-0.136 0,-0.058 -0.033,-0.108 -0.096,-0.144 L 0.199,0.311 C 0.051,0.226 0.008,0.158 0,0 h 0.472 z"
       id="path1214" />
  </symbol>
  <symbol
     id="I">
    <path
       d="m 0.093,0.309 h 0.229 a 0.2,0.2 0 0 1 0.141,0.052 0.19,0.19 0 0 1 0.063,0.154 c 0,0.137 -0.081,0.214 -0.225,0.214 H 0 V 0 h 0.093 v 0.309 m 0,0.082 v 0.256 h 0.194 c 0.089,0 0.142,-0.048 0.142,-0.128 0,-0.08 -0.053,-0.128 -0.142,-0.128 z"
       id="path1263" />
  </symbol>
  <symbol
     id="J">
    <path
       d="M 0.614,0.526 C 0.585,0.686 0.493,0.764 0.333,0.764 A 0.298,0.298 0 0 1 0.102,0.673 0.43,0.43 0 0 1 0,0.379 C 0,0.259 0.037,0.156 0.105,0.085 A 0.295,0.295 0 0 1 0.329,0 c 0.178,0 0.278,0.096 0.3,0.289 H 0.533 A 0.364,0.364 0 0 0 0.5,0.176 C 0.47,0.116 0.408,0.082 0.33,0.082 c -0.145,0 -0.237,0.116 -0.237,0.298 0,0.187 0.087,0.302 0.229,0.302 0.059,0 0.114,-0.017 0.144,-0.046 0.027,-0.025 0.042,-0.055 0.053,-0.11 z"
       id="path1266" />
  </symbol>
  <symbol
     id="K">
    <path
       d="M 0.157,0.515 V 0 H 0.245 V 0.723 H 0.187 C 0.156,0.612 0.136,0.597 0,0.579 V 0.515 Z"
       id="path1269" />
  </symbol>
  <symbol
     id="L">
    <path
       d="M 0.104,0.104 H 0 V 0 h 0.104 z"
       id="path1272" />
  </symbol>
  <symbol
     id="M">
    <path
       d="M 0.238,0.072 H 0 V 0 h 0.238 z"
       id="path1275" />
  </symbol>
  <symbol
     id="N">
    <path
       d="M 0.441,0.732 H 0.075 L 0.022,0.346 h 0.081 c 0.041,0.049 0.075,0.066 0.131,0.066 0.095,0 0.154,-0.065 0.154,-0.17 0,-0.102 -0.059,-0.164 -0.155,-0.164 -0.077,0 -0.124,0.039 -0.145,0.119 H 0 C 0.012,0.139 0.022,0.111 0.043,0.085 A 0.236,0.236 0 0 1 0.235,0 c 0.143,0 0.243,0.104 0.243,0.254 0,0.14 -0.093,0.236 -0.229,0.236 A 0.208,0.208 0 0 1 0.118,0.447 l 0.028,0.198 h 0.295 z"
       id="path1278" />
  </symbol>
  <path
     id="path1303"
     style="fill:#aa0000;fill-opacity:1;stroke:none;stroke-width:0;stroke-miterlimit:4;stroke-dasharray:none"
     d="M 95.250003,16.500005 116.25,55.500006 95.250003,94.500007 H 129 l 21,-39.000001 -21,-38.9998 z M 67.500002,55.500006 46.500001,94.500007 H 80.250002 L 101.25,55.500006 Z m -46.500001,0 L 0,94.500007 21.000001,133.5 H 54.750002 L 33.750001,94.500007 54.750002,55.500006 Z"
     sodipodi:nodetypes="ccccccccccccccccccc" />
  <symbol
     id="O">
    <path
       d="M 0.472,0.086 H 0.099 c 0.009,0.06 0.041,0.098 0.128,0.151 l 0.1,0.056 c 0.099,0.055 0.15,0.129 0.15,0.218 A 0.21,0.21 0 0 1 0.411,0.666 0.227,0.227 0 0 1 0.25,0.722 C 0.16,0.722 0.093,0.69 0.054,0.628 A 0.282,0.282 0 0 1 0.016,0.472 h 0.088 a 0.257,0.257 0 0 0 0.021,0.102 0.135,0.135 0 0 0 0.122,0.071 c 0.08,0 0.14,-0.058 0.14,-0.136 0,-0.058 -0.033,-0.108 -0.096,-0.144 L 0.199,0.311 C 0.051,0.226 0.008,0.158 0,0 h 0.472 z"
       id="path1325" />
  </symbol>
  <symbol
     id="P">
    <path
       d="M 0.441,0.732 H 0.075 L 0.022,0.346 h 0.081 c 0.041,0.049 0.075,0.066 0.131,0.066 0.095,0 0.154,-0.065 0.154,-0.17 0,-0.102 -0.059,-0.164 -0.155,-0.164 -0.077,0 -0.124,0.039 -0.145,0.119 H 0 C 0.012,0.139 0.022,0.111 0.043,0.085 A 0.236,0.236 0 0 1 0.235,0 c 0.143,0 0.243,0.104 0.243,0.254 0,0.14 -0.093,0.236 -0.229,0.236 A 0.208,0.208 0 0 1 0.118,0.447 l 0.028,0.198 h 0.295 z"
       id="path1328" />
  </symbol>
  <symbol
     id="Q">
    <path
       d="M 0,0 Z"
       id="path1331" />
  </symbol>
  <symbol
     id="R">
    <path
       d="M 0.083,0.729 H 0 V 0 H 0.083 V 0.204 L 0.164,0.284 0.341,0 H 0.444 L 0.23,0.343 0.412,0.524 H 0.305 L 0.083,0.302 Z"
       id="path1334" />
  </symbol>
  <symbol
     id="S">
    <path
       d="M 0.362,0 0.615,0.729 H 0.516 L 0.314,0.112 0.1,0.729 H 0 L 0.262,0 Z"
       id="path1337" />
  </symbol>
  <symbol
     id="T">
    <path
       d="m 0.093,0.314 h 0.24 c 0.083,0 0.12,-0.04 0.12,-0.13 L 0.452,0.119 C 0.452,0.074 0.46,0.03 0.473,0 H 0.586 V 0.023 C 0.551,0.047 0.544,0.073 0.542,0.17 0.541,0.29 0.522,0.326 0.443,0.36 0.525,0.401 0.558,0.45 0.558,0.534 0.558,0.66 0.48,0.729 0.336,0.729 H 0 V 0 h 0.093 v 0.314 m 0,0.082 V 0.647 H 0.318 C 0.37,0.647 0.4,0.639 0.423,0.619 0.448,0.598 0.461,0.565 0.461,0.522 0.461,0.435 0.417,0.396 0.318,0.396 Z"
       id="path1356" />
  </symbol>
  <symbol
     id="U">
    <path
       d="m 0.473,0.257 c 0,0.08 -0.006,0.128 -0.021,0.167 A 0.22,0.22 0 0 1 0.24,0.562 C 0.094,0.562 0,0.451 0,0.278 0,0.105 0.09,0 0.238,0 0.358,0 0.441,0.068 0.462,0.182 H 0.378 C 0.355,0.113 0.308,0.077 0.241,0.077 A 0.145,0.145 0 0 0 0.115,0.145 C 0.095,0.175 0.088,0.205 0.087,0.257 H 0.473 M 0.089,0.325 c 0.007,0.097 0.066,0.16 0.15,0.16 0.085,0 0.144,-0.066 0.144,-0.16 H 0.089 Z"
       id="path1359" />
  </symbol>
  <symbol
     id="V">
    <path
       d="M 0.084,0.729 H 0 V 0 h 0.084 z"
       id="path1362" />
  </symbol>
  <symbol
     id="W">
    <path
       d="M 0.493,0.072 0.475,0.07 C 0.446,0.07 0.43,0.085 0.43,0.111 V 0.419 C 0.43,0.512 0.362,0.562 0.233,0.562 0.156,0.562 0.095,0.54 0.059,0.501 0.035,0.474 0.025,0.444 0.023,0.392 h 0.084 c 0.007,0.064 0.045,0.093 0.123,0.093 0.076,0 0.117,-0.028 0.117,-0.078 V 0.385 C 0.346,0.349 0.328,0.336 0.26,0.327 A 0.598,0.598 0 0 1 0.092,0.295 0.14,0.14 0 0 1 0,0.155 C 0,0.06 0.066,0 0.172,0 0.238,0 0.291,0.023 0.35,0.077 0.356,0.023 0.382,0 0.436,0 0.454,0 0.465,0.002 0.493,0.009 V 0.072 M 0.347,0.188 C 0.347,0.16 0.339,0.143 0.314,0.12 A 0.177,0.177 0 0 0 0.19,0.073 c -0.065,0 -0.103,0.031 -0.103,0.084 0,0.055 0.036,0.083 0.126,0.096 a 0.407,0.407 0 0 1 0.134,0.029 z"
       id="path1365" />
  </symbol>
  <symbol
     id="X">
    <path
       d="M 0.404,0.401 C 0.403,0.504 0.335,0.562 0.214,0.562 0.092,0.562 0.013,0.499 0.013,0.402 0.013,0.32 0.055,0.281 0.179,0.251 L 0.257,0.232 C 0.315,0.218 0.338,0.197 0.338,0.16 0.338,0.11 0.289,0.077 0.216,0.077 0.171,0.077 0.133,0.09 0.112,0.112 0.099,0.127 0.093,0.142 0.088,0.179 H 0 C 0.004,0.058 0.072,0 0.209,0 0.341,0 0.425,0.065 0.425,0.166 0.425,0.244 0.381,0.287 0.277,0.312 L 0.197,0.331 C 0.129,0.347 0.1,0.369 0.1,0.406 c 0,0.049 0.043,0.079 0.111,0.079 0.067,0 0.103,-0.029 0.105,-0.084 z"
       id="path1368" />
  </symbol>
  <symbol
     id="Y">
    <path
       d="M 0.24,0.547 H 0.154 V 0.691 H 0.071 V 0.547 H 0 V 0.479 H 0.071 V 0.083 C 0.071,0.029 0.107,0 0.172,0 0.194,0 0.212,0.002 0.24,0.007 v 0.07 A 0.154,0.154 0 0 0 0.2,0.073 c -0.036,0 -0.046,0.01 -0.046,0.047 V 0.479 H 0.24 Z"
       id="path1371" />
  </symbol>
  <symbol
     id="Z">
    <path
       d="M 0.44,0.371 A 0.216,0.216 0 0 1 0.405,0.484 0.21,0.21 0 0 1 0.233,0.562 C 0.091,0.562 0,0.45 0,0.276 0,0.107 0.09,0 0.232,0 0.357,0 0.436,0.075 0.446,0.203 H 0.362 C 0.348,0.119 0.305,0.077 0.234,0.077 c -0.092,0 -0.147,0.075 -0.147,0.199 0,0.131 0.054,0.209 0.145,0.209 0.07,0 0.114,-0.041 0.124,-0.114 z"
       id="path1374" />
  </symbol>
  <symbol
     id="aa">
    <path
       d="M 0,0.729 V 0 h 0.083 v 0.289 c 0,0.107 0.056,0.177 0.142,0.177 A 0.123,0.123 0 0 0 0.299,0.443 C 0.323,0.425 0.333,0.4 0.333,0.363 V 0 h 0.083 v 0.396 c 0,0.088 -0.063,0.143 -0.165,0.143 -0.074,0 -0.119,-0.023 -0.168,-0.087 v 0.277 z"
       id="path1377" />
  </symbol>
  <symbol
     id="ab">
    <path
       d="M 0.236,0.562 C 0.088,0.562 0,0.457 0,0.281 0,0.104 0.088,0 0.237,0 0.385,0 0.474,0.105 0.474,0.277 0.474,0.459 0.388,0.562 0.236,0.562 M 0.237,0.485 c 0.094,0 0.15,-0.077 0.15,-0.207 0,-0.124 -0.058,-0.201 -0.15,-0.201 -0.093,0 -0.15,0.077 -0.15,0.204 0,0.127 0.057,0.204 0.15,0.204 z"
       id="path1380" />
  </symbol>
  <symbol
     id="ac">
    <path
       d="M 0,0 H 0.084 V 0.273 A 0.192,0.192 0 0 1 0.245,0.195 c 0.136,0 0.224,0.109 0.224,0.276 0,0.176 -0.086,0.286 -0.225,0.286 A 0.189,0.189 0 0 1 0.077,0.663 V 0.742 H 0 V 0 m 0.23,0.679 c 0.092,0 0.152,-0.081 0.152,-0.206 0,-0.119 -0.061,-0.2 -0.152,-0.2 -0.089,0 -0.146,0.08 -0.146,0.203 0,0.123 0.057,0.203 0.146,0.203 z"
       id="path1383" />
  </symbol>
  <symbol
     id="ad">
    <path
       d="M 0,0.524 V 0 h 0.084 v 0.289 c 0,0.107 0.056,0.177 0.142,0.177 0.066,0 0.108,-0.04 0.108,-0.103 V 0 h 0.083 v 0.396 c 0,0.087 -0.065,0.143 -0.166,0.143 -0.078,0 -0.128,-0.03 -0.174,-0.103 v 0.088 z"
       id="path1386" />
  </symbol>
  <symbol
     id="ae">
    <path
       d="M 0.275,0 0.476,0.524 H 0.382 L 0.234,0.099 0.094,0.524 H 0 L 0.184,0 Z"
       id="path1389" />
  </symbol>
  <symbol
     id="af">
    <path
       d="M 0,0.524 V 0 H 0.084 V 0.272 C 0.085,0.398 0.137,0.454 0.252,0.451 V 0.536 A 0.211,0.211 0 0 1 0.22,0.539 c -0.054,0 -0.095,-0.032 -0.143,-0.11 v 0.095 z"
       id="path1392" />
  </symbol>
  <symbol
     id="ag">
    <path
       d="m 0.093,0.309 h 0.229 a 0.2,0.2 0 0 1 0.141,0.052 0.19,0.19 0 0 1 0.063,0.154 c 0,0.137 -0.081,0.214 -0.225,0.214 H 0 V 0 h 0.093 v 0.309 m 0,0.082 v 0.256 h 0.194 c 0.089,0 0.142,-0.048 0.142,-0.128 0,-0.08 -0.053,-0.128 -0.142,-0.128 z"
       id="path1395" />
  </symbol>
  <symbol
     id="ah">
    <path
       d="M 0.417,0.023 V 0.547 H 0.334 V 0.25 c 0,-0.107 -0.056,-0.177 -0.143,-0.177 -0.066,0 -0.108,0.04 -0.108,0.103 V 0.547 H 0 V 0.143 C 0,0.056 0.065,0 0.167,0 0.244,0 0.293,0.027 0.342,0.096 V 0.023 Z"
       id="path1398" />
  </symbol>
  <symbol
     id="ai">
    <path
       d="M 0.469,0.752 H 0.386 V 0.481 A 0.183,0.183 0 0 1 0.225,0.562 C 0.089,0.562 0,0.453 0,0.286 0,0.109 0.086,0 0.228,0 0.3,0 0.35,0.027 0.395,0.092 V 0.023 H 0.469 V 0.752 M 0.239,0.484 c 0.09,0 0.147,-0.079 0.147,-0.205 0,-0.121 -0.058,-0.201 -0.146,-0.201 -0.092,0 -0.153,0.081 -0.153,0.203 0,0.122 0.061,0.203 0.152,0.203 z"
       id="path1401" />
  </symbol>
  <symbol
     id="aj">
    <path
       d="M 0.093,0.332 H 0.49 V 0.414 H 0.093 V 0.647 H 0.505 V 0.729 H 0 V 0 h 0.523 v 0.082 h -0.43 z"
       id="path1404" />
  </symbol>
  <symbol
     id="ak">
    <path
       d="M 0.369,0.742 V 0.666 C 0.327,0.729 0.281,0.757 0.215,0.757 0.088,0.757 0,0.639 0,0.471 0,0.383 0.021,0.319 0.066,0.266 A 0.186,0.186 0 0 1 0.209,0.195 c 0.063,0 0.108,0.028 0.152,0.094 V 0.262 C 0.361,0.122 0.322,0.07 0.218,0.07 0.147,0.07 0.11,0.098 0.102,0.158 H 0.017 C 0.025,0.061 0.102,0 0.216,0 0.293,0 0.357,0.025 0.391,0.067 0.431,0.116 0.446,0.181 0.446,0.304 V 0.742 H 0.369 M 0.223,0.68 c 0.088,0 0.138,-0.074 0.138,-0.207 0,-0.127 -0.051,-0.201 -0.138,-0.201 -0.086,0 -0.136,0.075 -0.136,0.204 0,0.128 0.05,0.204 0.136,0.204 z"
       id="path1407" />
  </symbol>
  <symbol
     id="al">
    <path
       d="M 0.084,0.524 H 0.001 V 0 h 0.083 v 0.524 m 0,0.205 H 0 V 0.624 h 0.084 z"
       id="path1410" />
  </symbol>
  <symbol
     id="am">
    <path
       d="M 0.275,0.271 0.451,0.524 H 0.357 L 0.231,0.334 0.105,0.524 H 0.01 L 0.185,0.267 0,0 H 0.095 L 0.228,0.201 0.359,0 h 0.097 z"
       id="path1413" />
  </symbol>
  <symbol
     id="an">
    <path
       d="M 0.548,0.538 A 0.18,0.18 0 0 1 0.529,0.636 C 0.489,0.72 0.404,0.764 0.281,0.764 0.121,0.764 0.022,0.682 0.022,0.55 0.022,0.461 0.069,0.405 0.165,0.38 L 0.346,0.332 C 0.439,0.308 0.48,0.271 0.48,0.214 A 0.128,0.128 0 0 0 0.428,0.113 0.233,0.233 0 0 0 0.294,0.082 c -0.08,0 -0.133,0.019 -0.168,0.061 A 0.158,0.158 0 0 0 0.088,0.255 H 0 A 0.244,0.244 0 0 1 0.043,0.104 C 0.093,0.035 0.177,0 0.288,0 0.375,0 0.446,0.02 0.493,0.056 a 0.22,0.22 0 0 1 0.08,0.167 c 0,0.09 -0.056,0.156 -0.155,0.183 L 0.235,0.455 c -0.088,0.024 -0.12,0.052 -0.12,0.108 0,0.074 0.065,0.123 0.163,0.123 0.116,0 0.181,-0.052 0.182,-0.148 z"
       id="path1416" />
  </symbol>
  <symbol
     id="ao">
    <path
       d="M 0.157,0.515 V 0 H 0.245 V 0.723 H 0.187 C 0.156,0.612 0.136,0.597 0,0.579 V 0.515 Z"
       id="path1759" />
  </symbol>
  <symbol
     id="ap">
    <path
       d="m 0.189,0.356 h 0.048 c 0.096,0 0.147,-0.045 0.147,-0.132 0,-0.091 -0.055,-0.146 -0.146,-0.146 -0.097,0 -0.144,0.049 -0.15,0.155 H 0 A 0.307,0.307 0 0 1 0.031,0.105 C 0.068,0.035 0.137,0 0.234,0 c 0.146,0 0.24,0.088 0.24,0.225 0,0.092 -0.035,0.142 -0.12,0.172 0.066,0.027 0.099,0.077 0.099,0.15 0,0.124 -0.081,0.199 -0.216,0.199 -0.143,0 -0.219,-0.08 -0.222,-0.233 h 0.088 a 0.206,0.206 0 0 0 0.016,0.091 c 0.02,0.041 0.064,0.065 0.119,0.065 0.078,0 0.125,-0.047 0.125,-0.125 0,-0.051 -0.018,-0.082 -0.057,-0.099 A 0.326,0.326 0 0 0 0.189,0.43 Z"
       id="path1842" />
  </symbol>
  <symbol
     id="aq">
    <path
       d="M 0.299,0.175 V 0 H 0.387 V 0.175 H 0.492 V 0.254 H 0.387 V 0.723 H 0.322 L 0,0.268 V 0.175 h 0.299 m 0,0.079 H 0.077 l 0.222,0.319 z"
       id="path1849" />
  </symbol>
  <symbol
     id="ar">
    <path
       d="M 0.455,0.558 C 0.438,0.676 0.362,0.746 0.254,0.746 A 0.223,0.223 0 0 1 0.064,0.643 0.52,0.52 0 0 1 0,0.353 C 0,0.231 0.017,0.154 0.06,0.09 A 0.2,0.2 0 0 1 0.238,0 C 0.373,0 0.47,0.101 0.47,0.242 0.47,0.375 0.38,0.469 0.253,0.469 A 0.189,0.189 0 0 1 0.09,0.39 c 0.001,0.179 0.057,0.278 0.158,0.278 0.062,0 0.105,-0.04 0.119,-0.11 H 0.455 M 0.242,0.391 c 0.085,0 0.138,-0.06 0.138,-0.156 0,-0.091 -0.06,-0.157 -0.141,-0.157 -0.082,0 -0.144,0.069 -0.144,0.161 0,0.09 0.06,0.152 0.147,0.152 z"
       id="path1856" />
  </symbol>
  <symbol
     id="as">
    <path
       d="M 0.474,0.709 H 0 V 0.622 H 0.383 C 0.214,0.381 0.145,0.233 0.092,0 h 0.094 c 0.039,0.227 0.128,0.422 0.288,0.635 z"
       id="path1937" />
  </symbol>
  <symbol
     id="at">
    <path
       d="M 0.354,0.404 C 0.428,0.449 0.451,0.485 0.451,0.553 0.451,0.667 0.364,0.746 0.238,0.746 0.113,0.746 0.025,0.667 0.025,0.554 0.025,0.485 0.048,0.45 0.121,0.404 0.04,0.363 0,0.304 0,0.224 0,0.092 0.097,0 0.238,0 c 0.14,0 0.238,0.092 0.238,0.224 0,0.08 -0.04,0.139 -0.122,0.18 M 0.238,0.668 c 0.075,0 0.123,-0.045 0.123,-0.117 0,-0.068 -0.049,-0.113 -0.123,-0.113 -0.075,0 -0.123,0.045 -0.123,0.115 0,0.07 0.048,0.115 0.123,0.115 m 0,-0.304 c 0.088,0 0.148,-0.058 0.148,-0.142 0,-0.087 -0.059,-0.144 -0.15,-0.144 -0.086,0 -0.146,0.059 -0.146,0.143 0,0.086 0.059,0.143 0.148,0.143 z"
       id="path1944" />
  </symbol>
  <symbol
     id="au">
    <path
       d="M 0.015,0.188 C 0.032,0.07 0.108,0 0.216,0 0.295,0 0.365,0.038 0.407,0.103 a 0.529,0.529 0 0 1 0.064,0.29 0.453,0.453 0 0 1 -0.06,0.263 0.204,0.204 0 0 1 -0.179,0.09 C 0.097,0.746 0,0.645 0,0.505 0,0.372 0.09,0.278 0.218,0.278 0.285,0.278 0.335,0.302 0.38,0.357 0.379,0.177 0.323,0.078 0.222,0.078 0.16,0.078 0.117,0.118 0.103,0.188 H 0.015 m 0.216,0.481 c 0.082,0 0.144,-0.069 0.144,-0.162 0,-0.089 -0.06,-0.151 -0.147,-0.151 -0.085,0 -0.138,0.06 -0.138,0.156 0,0.091 0.059,0.157 0.141,0.157 z"
       id="path1951" />
  </symbol>
  <symbol
     id="av">
    <path
       d="M 0.093,0.332 H 0.441 V 0.414 H 0.093 V 0.647 H 0.489 V 0.729 H 0 V 0 h 0.093 z"
       id="path1956" />
  </symbol>
  <symbol
     id="aw">
    <path
       d="M 0.094,0.729 H 0 V 0 h 0.094 z"
       id="path1959" />
  </symbol>
  <symbol
     id="ax">
    <path
       d="M 0.665,0.408 H 0.361 V 0.326 H 0.583 V 0.306 A 0.219,0.219 0 0 0 0.354,0.082 0.248,0.248 0 0 0 0.17,0.156 0.347,0.347 0 0 0 0.093,0.385 c 0,0.179 0.102,0.297 0.256,0.297 0.111,0 0.191,-0.057 0.211,-0.151 H 0.655 C 0.629,0.679 0.517,0.764 0.35,0.764 A 0.33,0.33 0 0 1 0.132,0.694 0.397,0.397 0 0 1 0,0.38 C 0,0.156 0.137,0 0.334,0 0.433,0 0.511,0.037 0.583,0.116 L 0.606,0.019 h 0.059 z"
       id="path1962" />
  </symbol>
  <symbol
     id="ay">
    <path
       d="M 0.467,0.752 V 0.24 C 0.467,0.142 0.396,0.082 0.279,0.082 A 0.223,0.223 0 0 0 0.146,0.12 C 0.11,0.148 0.093,0.185 0.093,0.24 V 0.752 H 0 V 0.24 C 0,0.092 0.106,0 0.279,0 0.45,0 0.56,0.094 0.56,0.24 v 0.512 z"
       id="path1965" />
  </symbol>
  <symbol
     id="az">
    <path
       d="M 0.093,0.332 H 0.49 V 0.414 H 0.093 V 0.647 H 0.505 V 0.729 H 0 V 0 h 0.523 v 0.082 h -0.43 z"
       id="path1968" />
  </symbol>
  <symbol
     id="aA">
    <path
       d="M 0.093,0.729 H 0 V 0 h 0.453 v 0.082 h -0.36 z"
       id="path1971" />
  </symbol>
  <symbol
     id="aB">
    <path
       d="M 0.362,0 0.615,0.729 H 0.516 L 0.314,0.112 0.1,0.729 H 0 L 0.262,0 Z"
       id="path1974" />
  </symbol>
  <symbol
     id="aC">
    <path
       d="M 0.374,0.286 0.648,0.729 H 0.537 L 0.329,0.374 0.115,0.729 H 0 L 0.281,0.286 V 0 h 0.093 z"
       id="path1977" />
  </symbol>
  <symbol
     id="aD">
    <path
       d="M 0.163,0.941 A 0.82,0.82 0 0 1 0,0.471 0.82,0.82 0 0 1 0.163,0 H 0.218 A 0.915,0.915 0 0 0 0.081,0.471 c 0,0.159 0.049,0.328 0.137,0.47 z"
       id="path1980" />
  </symbol>
  <symbol
     id="aE">
    <path
       d="M 0.055,0 A 0.82,0.82 0 0 1 0.218,0.47 0.82,0.82 0 0 1 0.055,0.941 H 0 A 0.915,0.915 0 0 0 0.137,0.47 0.912,0.912 0 0 0 0,0 Z"
       id="path1983" />
  </symbol>
</svg>
